<svg width="440" height="426" viewBox="0 0 440 426" fill="none" xmlns="http://www.w3.org/2000/svg">
<g clip-path="url(#clip0_196_12)">
<path d="M353.733 2.66666C343.067 4.93332 332.533 11.7333 322.133 22.8C314.667 30.8 312.8 34 309.467 43.3333C302.4 63.6 303.467 80.9333 312.933 100.267L317.067 108.8L300.933 125.067L284.667 141.333L277.733 134.4L270.667 127.333L278 119.733C282.133 115.467 287.333 109.867 289.6 107.333L294 102.667L290.533 94.1333C288.667 89.4667 286.667 81.6 286.267 76.8L285.333 68L276.4 64.9333L267.467 61.7333L267.067 39.2L266.667 16.6667L262.267 12.4L258 8L218.667 7.59998C172.933 7.19998 171.6 7.46664 167.067 17.7333C164.8 22.9333 164.533 26 164.933 43.4666L165.333 63.2L158.667 65.4667C155.067 66.6667 148 69.6 143.2 72.1333L134.4 76.8L112 54C79.0667 20.8 79.4667 20.8 50.1333 50C27.7333 72.2667 25.4667 76.2667 29.2 85.3333C30.4 88.1333 40.2667 99.2 53.2 112.133L75.0667 134.133L69.8667 145.2C67.0667 151.2 64.4 158.667 63.8667 161.733L62.9333 167.333H39.7333C12.8 167.333 8.4 168.4 5.33333 175.867C3.73333 179.6 3.33333 187.867 3.33333 215.333C3.33333 265.333 1.86667 263.333 37.7333 263.333C59.7333 263.333 62.1333 263.6 62.8 265.6C63.2 266.933 64.6667 270.933 66.1333 274.667C67.7333 278.267 69.2 282.4 69.6 283.733C70.1333 285.467 62.1333 294.4 39.0667 317.733C11.4667 345.6 7.33333 350.4 4 358C0.666667 365.333 0.133333 368.4 0 378C0 387.733 0.533333 390.533 3.73333 397.467C8.53333 407.733 17.6 416.8 28 421.467C34.8 424.667 37.7333 425.2 48 425.2C58.6667 425.2 60.9333 424.8 68.6667 421.067C76.5333 417.333 82.5333 411.867 137.067 356.267C170 322.8 196.667 295.067 196.4 294.533C196.133 293.867 192.267 292.133 187.6 290.533C183.067 288.933 176.133 285.467 172.133 282.8C168.133 280.133 164.267 278 163.333 278C161.867 278 120.267 319.467 74.4 366.533C53.8667 387.733 49.7333 391.333 46.2667 391.333C38.2667 391.333 31.8667 381.867 35.3333 375.333C36.1333 373.867 61.6 347.733 92 317.467C122.4 287.067 147.333 261.6 147.333 260.8C147.333 259.867 145.467 255.6 143.2 251.2C131.333 227.733 131.2 202 142.533 177.2C146.4 168.933 149.6 164.8 158.4 156C176.133 138.533 193.2 131.867 218 133.067C235.2 133.867 250.133 138.8 262 148C284.8 165.467 295.867 187.333 295.733 214.667C295.6 237.6 288.133 255.333 271.333 272.133C261.6 281.867 246.267 290.4 233.867 292.933L225.733 294.667L191.733 328.667C161.333 359.067 158 362.667 160.8 363.333C164 364.133 164 364.533 165.333 387.6C166.667 411.067 166.667 411.2 170.533 415.2L174.533 419.333H216C261.333 419.333 261.2 419.333 265.333 411.333C266.8 408.4 267.333 402.4 267.333 386.133V364.933L271.733 364C274 363.467 281.333 360.667 287.733 357.6L299.467 352.133L322.4 375.067C336.8 389.333 346.667 398.133 349.067 398.8C358.133 400.933 361.6 398.8 381.733 378.933C401.467 359.467 404.667 355.333 404.667 349.333C404.667 343.067 400.533 337.467 379.467 316.267C368 304.667 358.533 294.933 358.267 294.667C358 294.533 359.467 291.067 361.467 287.067C363.467 283.2 366.133 276.4 367.333 272L369.6 264L395.2 263.333L420.933 262.667L424.8 258.267L428.667 254V215.333V176.667L424.8 172.4L420.933 168L395.6 167.6L370.4 167.2L368.8 160.267L367.333 153.2L356.133 150.933L345.067 148.667L328.267 165.2L311.6 181.6L309.2 176.133C307.867 173.2 305.6 168.933 304.267 166.933L301.6 163.067L320 144.667L338.4 126.267L343.867 128.533C368.533 139.067 395.867 135.467 416 119.067C431.333 106.533 440.8 83.3333 438.8 63.4667C438 56.1333 434 41.4666 432.133 39.7333C431.733 39.3333 420.933 49.7333 408 62.8L384.533 86.4L369.2 71.2C360.8 62.9333 354 55.6 354 55.2C354 54.6667 364.267 43.8667 376.667 31.2C389.2 18.5333 399.2 7.46664 398.933 6.66666C398.133 4.26666 381.733 0.799988 371.333 0.933319C365.867 0.933319 357.867 1.73334 353.733 2.66666Z" fill="black"/>
</g>
<defs>
<clipPath id="clip0_196_12">
<rect width="440" height="426" fill="white"/>
</clipPath>
</defs>
</svg>
